<svg preserveAspectRatio="none" overflow="visible" width="55" height="55" viewBox="0 0 55 55" fill="none" xmlns="http://www.w3.org/2000/svg">
<g id="Group 33">
<rect id="Rectangle 314" width="55" height="55" fill="url(#paint0_linear_0_16)"/>
<path id="Vector" d="M21.28 8.19077H34.72C39.84 8.19077 44 12.1589 44 17.0427V29.8628C44 32.2105 43.0223 34.462 41.282 36.1221C39.5416 37.7822 37.1812 38.7148 34.72 38.7148H21.28C16.16 38.7148 12 34.7467 12 29.8628V17.0427C12 14.6951 12.9777 12.4435 14.718 10.7835C16.4584 9.12339 18.8188 8.19077 21.28 8.19077ZM20.96 11.2432C19.4324 11.2432 17.9673 11.822 16.8871 12.8524C15.8069 13.8828 15.2 15.2803 15.2 16.7375V30.1681C15.2 33.2052 17.776 35.6624 20.96 35.6624H35.04C36.5676 35.6624 38.0327 35.0835 39.1129 34.0531C40.1931 33.0228 40.8 31.6253 40.8 30.1681V16.7375C40.8 13.7004 38.224 11.2432 35.04 11.2432H20.96ZM36.4 13.5325C36.9304 13.5325 37.4391 13.7335 37.8142 14.0912C38.1893 14.449 38.4 14.9343 38.4 15.4402C38.4 15.9462 38.1893 16.4314 37.8142 16.7892C37.4391 17.147 36.9304 17.348 36.4 17.348C35.8696 17.348 35.3609 17.147 34.9858 16.7892C34.6107 16.4314 34.4 15.9462 34.4 15.4402C34.4 14.9343 34.6107 14.449 34.9858 14.0912C35.3609 13.7335 35.8696 13.5325 36.4 13.5325ZM28 15.8218C30.1217 15.8218 32.1566 16.6258 33.6569 18.0568C35.1571 19.4879 36 21.4289 36 23.4528C36 25.4767 35.1571 27.4176 33.6569 28.8487C32.1566 30.2798 30.1217 31.0838 28 31.0838C25.8783 31.0838 23.8434 30.2798 22.3431 28.8487C20.8429 27.4176 20 25.4767 20 23.4528C20 21.4289 20.8429 19.4879 22.3431 18.0568C23.8434 16.6258 25.8783 15.8218 28 15.8218ZM28 18.8742C26.727 18.8742 25.5061 19.3566 24.6059 20.2152C23.7057 21.0739 23.2 22.2385 23.2 23.4528C23.2 24.6671 23.7057 25.8317 24.6059 26.6903C25.5061 27.549 26.727 28.0314 28 28.0314C29.273 28.0314 30.4939 27.549 31.3941 26.6903C32.2943 25.8317 32.8 24.6671 32.8 23.4528C32.8 22.2385 32.2943 21.0739 31.3941 20.2152C30.4939 19.3566 29.273 18.8742 28 18.8742Z" fill="white"/>
</g>
<defs>
<linearGradient id="paint0_linear_0_16" x1="0" y1="0" x2="55" y2="55" gradientUnits="userSpaceOnUse">
<stop stop-color="#509041"/>
<stop offset="1" stop-color="#335F28"/>
</linearGradient>
</defs>
</svg>
